<?xml version="1.0" encoding="UTF-8" standalone="no"?>
<!-- Created with Inkscape (http://www.inkscape.org/) -->

<svg
   xmlns:dc="http://purl.org/dc/elements/1.1/"
   xmlns:cc="http://creativecommons.org/ns#"
   xmlns:rdf="http://www.w3.org/1999/02/22-rdf-syntax-ns#"
   xmlns:svg="http://www.w3.org/2000/svg"
   xmlns="http://www.w3.org/2000/svg"
   xmlns:sodipodi="http://sodipodi.sourceforge.net/DTD/sodipodi-0.dtd"
   xmlns:inkscape="http://www.inkscape.org/namespaces/inkscape"
   width="297mm"
   height="210mm"
   viewBox="0 0 297.00001 210"
   version="1.1"
   id="svg8"
   sodipodi:docname="logo_main.svg"
   inkscape:version="0.92.5 (2060ec1f9f, 2020-04-08)">
  <defs
     id="defs2" />
  <sodipodi:namedview
     id="base"
     pagecolor="#ffffff"
     bordercolor="#666666"
     borderopacity="1.0"
     inkscape:pageopacity="0.0"
     inkscape:pageshadow="2"
     inkscape:zoom="0.49497475"
     inkscape:cx="412.02459"
     inkscape:cy="389.39819"
     inkscape:document-units="mm"
     inkscape:current-layer="layer1"
     showgrid="false"
     inkscape:window-width="1920"
     inkscape:window-height="1016"
     inkscape:window-x="1920"
     inkscape:window-y="40"
     inkscape:window-maximized="1"
     fit-margin-top="0"
     fit-margin-left="0"
     fit-margin-right="0"
     fit-margin-bottom="0"
     units="mm" />
  <metadata
     id="metadata5">
    <rdf:RDF>
      <cc:Work
         rdf:about="">
        <dc:format>image/svg+xml</dc:format>
        <dc:type
           rdf:resource="http://purl.org/dc/dcmitype/StillImage" />
        <dc:title></dc:title>
      </cc:Work>
    </rdf:RDF>
  </metadata>
  <g
     inkscape:label="Layer 1"
     inkscape:groupmode="layer"
     id="layer1"
     style="display:inline"
     transform="translate(-83.449076,86.035233)">
    <g
       id="g92"
       transform="matrix(0.34430862,-1.059673,-1.059673,-0.34430862,57.161609,167.13603)" />
    <g
       id="g4636"
       transform="matrix(7.6211449,0,0,7.6211449,-72.630064,-960.73923)"
       inkscape:export-xdpi="13.546666"
       inkscape:export-ydpi="13.546666"
       style="fill:#1d396a;fill-opacity:1">
      <g
         transform="matrix(0.35277777,0,0,-0.35277777,28.600919,129.06402)"
         id="g720"
         style="fill:#1d396a;fill-opacity:1">
        <path
           inkscape:connector-curvature="0"
           id="path722"
           style="fill:#1d396a;fill-opacity:1;fill-rule:nonzero;stroke:none"
           d="m 0,0 c 0.486,-0.1 0.99,-0.152 1.506,-0.152 3.422,0 6.305,2.299 7.191,5.436 H 8.694 C 8.696,5.291 8.698,5.296 8.699,5.303 8.752,5.492 8.799,5.684 8.838,5.88 8.801,5.685 8.755,5.493 8.701,5.303 8.701,5.297 8.699,5.291 8.697,5.284 l 1.69,-0.477 10e-4,-0.002 C 9.313,1.008 3.94,-0.83 0,0 M -0.528,0.128 -1.007,-1.564 -1.009,-1.565 C -4.86,-0.475 -6.694,5.039 -5.776,8.992 -5.899,8.455 -5.964,7.895 -5.964,7.319 c 0,-3.421 2.299,-6.304 5.436,-7.191 V 0.129 C -0.48,0.116 -0.434,0.103 -0.385,0.09 -0.434,0.102 -0.48,0.114 -0.528,0.128 M -7.38,9.832 v 0.003 c 1.092,3.857 6.618,5.691 10.573,4.764 -0.543,0.126 -1.107,0.192 -1.687,0.192 -3.421,0 -6.304,-2.3 -7.191,-5.437 h 0.002 C -5.694,9.32 -5.702,9.286 -5.712,9.252 c 0.01,0.034 0.018,0.068 0.027,0.102 z M 1.559,7.319 H -2.229 -3.11 c 0,-2.549 2.066,-4.616 4.616,-4.616 2.119,0 3.904,1.427 4.447,3.373 L 7.65,5.599 C 6.899,2.912 4.434,0.939 1.506,0.939 c -3.523,0 -6.38,2.857 -6.38,6.38 0,3.523 2.857,6.38 6.38,6.38 H 1.507 C 5.03,13.698 7.886,10.842 7.886,7.319 H 6.123 5.242 Z m 2.461,8.886 v 0.002 C 7.755,15.149 9.593,9.933 8.863,6.013 c 0.075,0.424 0.115,0.861 0.115,1.306 0,3.422 -2.3,6.305 -5.437,7.191 z m -2.514,3.204 c -6.677,0 -12.089,-5.413 -12.089,-12.09 0,-6.676 5.412,-12.09 12.089,-12.09 6.677,0 12.09,5.414 12.09,12.09 0,6.677 -5.413,12.09 -12.09,12.09" />
      </g>
      <g
         transform="matrix(0.35277777,0,0,-0.35277777,29.132483,124.85341)"
         id="g724"
         style="fill:#1d396a;fill-opacity:1">
        <path
           inkscape:connector-curvature="0"
           id="path726"
           style="fill:#1d396a;fill-opacity:1;fill-rule:nonzero;stroke:none"
           d="m 0,0 h -0.001 c -1.926,0 -3.575,-1.178 -4.267,-2.853 h 0.973 0.006 6.582 0.974 C 3.574,-1.178 1.925,0 0,0" />
      </g>
    </g>
    <g
       id="g4987"
       transform="matrix(7.1673398,0,0,7.1673398,-291.67627,-1478.3115)">
      <g
         transform="matrix(0.35277777,0,0,-0.35277777,69.311743,207.19921)"
         id="g626">
        <path
           inkscape:connector-curvature="0"
           id="path628"
           style="fill:#1d396a;fill-opacity:1;fill-rule:nonzero;stroke:none"
           d="m 0,0 h -6.902 v 9.049 h 6.701 V 7.572 h -4.97 V 5.357 h 4.642 V 3.879 H -5.171 V 1.471 H 0 Z" />
      </g>
      <g
         transform="matrix(0.35277777,0,0,-0.35277777,72.451924,207.19921)"
         id="g630">
        <path
           inkscape:connector-curvature="0"
           id="path632"
           style="fill:#1d396a;fill-opacity:1;fill-rule:nonzero;stroke:none"
           d="m 0,0 h -1.745 l -4.04,6.521 0.047,-3.217 V 0 H -7.37 v 9.049 h 1.752 l 4.04,-6.521 -0.047,3.224 V 9.049 H 0 Z" />
      </g>
      <g
         transform="matrix(0.35277777,0,0,-0.35277777,75.550126,207.19921)"
         id="g634">
        <path
           inkscape:connector-curvature="0"
           id="path636"
           style="fill:#1d396a;fill-opacity:1;fill-rule:nonzero;stroke:none"
           d="m 0,0 h -6.902 v 9.049 h 6.701 V 7.572 h -4.97 V 5.357 h 4.643 V 3.879 H -5.171 V 1.471 H 0 Z" />
      </g>
      <g
         transform="matrix(0.35277777,0,0,-0.35277777,76.70145,205.4367)"
         id="g638">
        <path
           inkscape:connector-curvature="0"
           id="path640"
           style="fill:#1d396a;fill-opacity:1;fill-rule:nonzero;stroke:none"
           d="m 0,0 h 2.107 c 0.308,0 0.571,0.025 0.789,0.077 0.218,0.051 0.398,0.131 0.539,0.241 0.14,0.109 0.244,0.25 0.311,0.424 0.067,0.175 0.1,0.384 0.1,0.629 0,0.45 -0.133,0.782 -0.399,0.997 -0.264,0.214 -0.665,0.32 -1.2,0.32 L 0,2.688 Z M 6.039,-4.996 H 4.18 L 3.385,-2.742 C 3.313,-2.546 3.224,-2.366 3.117,-2.201 3.01,-2.036 2.884,-1.895 2.739,-1.779 2.594,-1.664 2.435,-1.574 2.261,-1.512 2.087,-1.45 1.895,-1.418 1.686,-1.418 H 0 v -3.578 h -1.732 v 9.049 h 4.019 c 0.34,0 0.652,-0.015 0.941,-0.044 C 3.515,3.98 3.779,3.928 4.02,3.853 4.261,3.776 4.477,3.672 4.668,3.539 4.859,3.405 5.027,3.23 5.17,3.016 5.46,2.588 5.604,2.076 5.604,1.478 5.604,0.841 5.436,0.324 5.097,-0.07 4.758,-0.465 4.281,-0.733 3.665,-0.876 v -0.02 c 0.348,-0.116 0.637,-0.315 0.866,-0.599 0.23,-0.283 0.434,-0.654 0.613,-1.114 z" />
      </g>
      <g
         transform="matrix(0.35277777,0,0,-0.35277777,80.71017,207.25329)"
         id="g642">
        <path
           inkscape:connector-curvature="0"
           id="path644"
           style="fill:#1d396a;fill-opacity:1;fill-rule:nonzero;stroke:none"
           d="m 0,0 c -0.65,0 -1.245,0.107 -1.782,0.324 -0.537,0.216 -0.997,0.526 -1.382,0.929 -0.383,0.404 -0.681,0.895 -0.893,1.472 -0.211,0.578 -0.317,1.227 -0.317,1.95 0,0.695 0.099,1.33 0.294,1.906 0.196,0.575 0.482,1.067 0.857,1.478 0.373,0.41 0.831,0.729 1.37,0.957 0.541,0.227 1.149,0.34 1.827,0.34 0.557,0 1.067,-0.071 1.532,-0.213 C 1.969,9 2.372,8.795 2.716,8.53 3.059,8.265 3.335,7.945 3.545,7.571 3.754,7.196 3.885,6.774 3.934,6.307 H 2.201 C 2.178,6.552 2.11,6.772 1.997,6.969 1.883,7.165 1.73,7.331 1.542,7.467 1.353,7.603 1.127,7.707 0.863,7.778 0.6,7.849 0.309,7.885 -0.014,7.885 -0.405,7.885 -0.76,7.815 -1.076,7.674 -1.394,7.534 -1.662,7.327 -1.886,7.052 -2.109,6.778 -2.283,6.441 -2.407,6.042 -2.532,5.644 -2.595,5.187 -2.595,4.675 -2.595,4.157 -2.531,3.699 -2.404,3.3 -2.277,2.901 -2.1,2.565 -1.872,2.293 -1.645,2.021 -1.369,1.816 -1.047,1.678 -0.723,1.54 -0.361,1.471 0.041,1.471 c 0.512,0 0.965,0.078 1.357,0.234 0.393,0.156 0.717,0.394 0.977,0.715 V 3.544 H 0.328 V 4.895 H 4.066 V 0.153 H 2.97 L 2.716,0.949 C 2.408,0.642 2.032,0.407 1.589,0.244 1.145,0.081 0.615,0 0,0" />
      </g>
      <path
         inkscape:connector-curvature="0"
         id="path646"
         style="fill:#1d396a;fill-opacity:1;fill-rule:nonzero;stroke:none;stroke-width:0.35277775"
         d="m 83.407086,207.19925 h -0.611011 v -3.19229 h 0.611011 z" />
      <g
         transform="matrix(0.35277777,0,0,-0.35277777,86.535838,207.19921)"
         id="g648">
        <path
           inkscape:connector-curvature="0"
           id="path650"
           style="fill:#1d396a;fill-opacity:1;fill-rule:nonzero;stroke:none"
           d="m 0,0 h -6.902 v 9.049 h 6.701 V 7.572 H -5.17 V 5.357 h 4.642 V 3.879 H -5.17 V 1.471 H 0 Z" />
      </g>
      <g
         transform="matrix(0.35277777,0,0,-0.35277777,86.535838,208.57226)"
         id="g652">
        <path
           inkscape:connector-curvature="0"
           id="path654"
           style="fill:#5a5758;fill-opacity:1;fill-rule:nonzero;stroke:none"
           d="m 0,0 c 0,-4.463 -5.354,-8.108 -9.878,-8.331 4.404,0.226 7.906,3.869 7.907,8.33 h 0.002 L -0.002,0 Z" />
      </g>
      <g
         transform="matrix(0.35277777,0,0,-0.35277777,67.137186,208.56002)"
         id="g656">
        <path
           inkscape:connector-curvature="0"
           id="path658"
           style="fill:#5a5758;fill-opacity:1;fill-rule:nonzero;stroke:none"
           d="m 0,0 0.032,-0.389 c 0.095,0.141 0.214,0.251 0.356,0.328 0.142,0.077 0.307,0.116 0.494,0.116 0.188,0 0.349,-0.042 0.484,-0.125 0.135,-0.084 0.237,-0.21 0.305,-0.379 0.091,0.158 0.209,0.281 0.353,0.37 0.146,0.089 0.317,0.134 0.512,0.134 0.291,0 0.52,-0.101 0.688,-0.301 0.168,-0.201 0.252,-0.506 0.252,-0.916 V -2.945 H 2.681 v 1.79 c 0,0.223 -0.036,0.379 -0.109,0.466 -0.073,0.087 -0.18,0.131 -0.324,0.131 -0.112,0 -0.21,-0.025 -0.292,-0.075 -0.083,-0.05 -0.148,-0.119 -0.198,-0.209 0,-0.034 10e-4,-0.063 0.003,-0.088 0.002,-0.025 0.003,-0.049 0.003,-0.075 v -1.94 H 0.972 v 1.79 c 0,0.218 -0.036,0.372 -0.11,0.462 -0.072,0.09 -0.18,0.135 -0.326,0.135 -0.107,0 -0.201,-0.021 -0.281,-0.061 C 0.174,-0.66 0.107,-0.717 0.054,-0.792 V -2.945 H -0.737 V 0 Z" />
      </g>
      <path
         inkscape:connector-curvature="0"
         id="path662"
         style="fill:#5a5758;fill-opacity:1;fill-rule:nonzero;stroke:none;stroke-width:0.35277775"
         d="m 68.81461,209.08954 c 0,0.0945 0.01658,0.17039 0.05009,0.22789 0.03281,0.0568 0.08678,0.0854 0.160866,0.0854 0.07267,0 0.125589,-0.0286 0.159103,-0.0861 0.03387,-0.0579 0.05045,-0.13335 0.05045,-0.22719 v -0.0201 c 0,-0.0921 -0.01693,-0.16722 -0.0508,-0.22543 -0.03387,-0.0579 -0.08749,-0.0871 -0.160514,-0.0871 -0.07232,0 -0.125589,0.0293 -0.158397,0.0878 -0.03387,0.0582 -0.0508,0.13335 -0.0508,0.22472 z m -0.2794,-0.0198 c 0,-0.15487 0.04339,-0.28152 0.129469,-0.38065 0.08643,-0.0991 0.206375,-0.14852 0.359128,-0.14852 0.153458,0 0.274108,0.0494 0.360891,0.14782 0.08714,0.0988 0.130528,0.22578 0.130528,0.38135 v 0.0201 c 0,0.15628 -0.04339,0.28363 -0.129822,0.3817 -0.08678,0.0981 -0.206728,0.14711 -0.359833,0.14711 -0.153106,0 -0.273756,-0.049 -0.360539,-0.14711 -0.08643,-0.0981 -0.129822,-0.22542 -0.129822,-0.3817 z" />
      <g
         transform="matrix(0.35277777,0,0,-0.35277777,70.234681,208.80118)"
         id="g664">
        <path
           inkscape:connector-curvature="0"
           id="path666"
           style="fill:#5a5758;fill-opacity:1;fill-rule:nonzero;stroke:none"
           d="m 0,0 -0.291,0.009 c -0.118,0 -0.215,-0.025 -0.291,-0.073 -0.077,-0.05 -0.135,-0.119 -0.175,-0.207 v -1.99 h -0.792 v 2.945 h 0.737 l 0.036,-0.436 c 0.069,0.155 0.159,0.275 0.269,0.361 0.109,0.086 0.236,0.129 0.38,0.129 0.039,0 0.075,-0.003 0.109,-0.009 C 0.016,0.722 0.05,0.714 0.084,0.706 Z" />
      </g>
      <g
         transform="matrix(0.35277777,0,0,-0.35277777,70.811367,208.75676)"
         id="g668">
        <path
           inkscape:connector-curvature="0"
           id="path670"
           style="fill:#5a5758;fill-opacity:1;fill-rule:nonzero;stroke:none"
           d="M 0,0 C -0.146,0 -0.263,-0.056 -0.349,-0.168 -0.433,-0.282 -0.485,-0.43 -0.505,-0.612 l 0.008,-0.014 h 0.974 v 0.071 c 0,0.168 -0.04,0.303 -0.119,0.404 C 0.279,-0.05 0.16,0 0,0 m 0.071,-2.444 c -0.425,0 -0.763,0.136 -1.016,0.408 -0.255,0.272 -0.382,0.618 -0.382,1.037 v 0.108 c 0,0.438 0.119,0.798 0.36,1.081 0.24,0.284 0.563,0.424 0.967,0.422 0.397,0 0.707,-0.119 0.926,-0.359 0.22,-0.239 0.329,-0.564 0.329,-0.972 v -0.433 h -1.757 l -0.006,-0.016 c 0.015,-0.193 0.079,-0.352 0.195,-0.477 0.115,-0.125 0.271,-0.187 0.468,-0.187 0.177,0 0.323,0.018 0.44,0.053 0.116,0.036 0.242,0.092 0.38,0.168 L 1.19,-2.102 C 1.07,-2.201 0.913,-2.282 0.72,-2.347 0.524,-2.412 0.31,-2.444 0.071,-2.444" />
      </g>
      <g
         transform="matrix(0.35277777,0,0,-0.35277777,72.2404,208.30545)"
         id="g672">
        <path
           inkscape:connector-curvature="0"
           id="path674"
           style="fill:#5a5758;fill-opacity:1;fill-rule:nonzero;stroke:none"
           d="M 0,0 V -0.722 H 0.495 V -1.279 H 0 v -1.5 c 0,-0.114 0.023,-0.196 0.071,-0.245 0.046,-0.049 0.11,-0.073 0.19,-0.073 0.042,0 0.078,0.002 0.107,0.006 0.03,0.005 0.066,0.012 0.106,0.023 L 0.541,-3.642 C 0.462,-3.669 0.384,-3.689 0.307,-3.704 0.231,-3.717 0.148,-3.723 0.06,-3.723 c -0.275,0 -0.486,0.075 -0.633,0.225 -0.149,0.151 -0.222,0.39 -0.222,0.716 v 1.503 h -0.43 v 0.557 h 0.43 V 0 Z" />
      </g>
      <g
         transform="matrix(0.35277777,0,0,-0.35277777,72.867425,208.69164)"
         id="g676">
        <path
           inkscape:connector-curvature="0"
           id="path678"
           style="fill:#5a5758;fill-opacity:1;fill-rule:nonzero;stroke:none"
           d="m 0,0 c 0.092,0.134 0.205,0.239 0.34,0.314 0.134,0.076 0.283,0.114 0.446,0.114 0.307,0 0.547,-0.102 0.722,-0.306 0.176,-0.205 0.263,-0.52 0.263,-0.946 V -2.572 H 0.977 v 1.757 c 0,0.23 -0.041,0.392 -0.123,0.487 -0.08,0.096 -0.2,0.143 -0.359,0.143 -0.108,0 -0.205,-0.02 -0.289,-0.058 C 0.122,-0.283 0.054,-0.337 0,-0.409 V -2.572 H -0.796 V 1.674 H 0 Z" />
      </g>
      <g
         transform="matrix(0.35277777,0,0,-0.35277777,74.056675,209.41148)"
         id="g680">
        <path
           inkscape:connector-curvature="0"
           id="path682"
           style="fill:#5a5758;fill-opacity:1;fill-rule:nonzero;stroke:none"
           d="M 0,0 C 0.14,0 0.265,0.034 0.373,0.103 0.481,0.172 0.556,0.252 0.594,0.342 V 0.759 H 0.15 c -0.168,0 -0.296,-0.042 -0.384,-0.126 -0.086,-0.085 -0.13,-0.187 -0.13,-0.307 0,-0.097 0.032,-0.177 0.097,-0.237 C -0.201,0.03 -0.111,0 0,0 M 0.728,-0.531 C 0.698,-0.464 0.673,-0.393 0.652,-0.319 0.632,-0.244 0.616,-0.168 0.607,-0.09 0.525,-0.233 0.418,-0.353 0.285,-0.446 0.151,-0.541 -0.007,-0.588 -0.192,-0.588 c -0.309,0 -0.547,0.079 -0.713,0.238 -0.168,0.159 -0.251,0.375 -0.251,0.649 0,0.288 0.111,0.512 0.333,0.671 0.222,0.159 0.547,0.238 0.973,0.238 H 0.594 V 1.442 C 0.594,1.583 0.557,1.694 0.481,1.771 0.408,1.85 0.299,1.888 0.152,1.888 0.023,1.888 -0.075,1.857 -0.146,1.794 -0.215,1.731 -0.25,1.646 -0.25,1.535 L -1.018,1.538 -1.02,1.554 c -0.012,0.248 0.095,0.463 0.324,0.643 0.229,0.18 0.529,0.271 0.901,0.271 0.352,0 0.637,-0.09 0.857,-0.268 C 1.281,2.021 1.391,1.767 1.391,1.437 V 0.22 c 0,-0.138 0.01,-0.267 0.032,-0.389 0.02,-0.122 0.054,-0.243 0.099,-0.362 z" />
      </g>
      <g
         transform="matrix(0.35277777,0,0,-0.35277777,75.015773,208.56002)"
         id="g684">
        <path
           inkscape:connector-curvature="0"
           id="path686"
           style="fill:#5a5758;fill-opacity:1;fill-rule:nonzero;stroke:none"
           d="m 0,0 0.036,-0.422 c 0.099,0.151 0.219,0.268 0.361,0.352 0.145,0.083 0.304,0.125 0.483,0.125 0.297,0 0.53,-0.094 0.696,-0.281 0.167,-0.187 0.251,-0.48 0.251,-0.879 v -1.84 H 1.028 v 1.841 c 0,0.199 -0.038,0.339 -0.118,0.422 -0.081,0.083 -0.201,0.124 -0.362,0.124 -0.106,0 -0.2,-0.021 -0.283,-0.064 C 0.181,-0.665 0.111,-0.725 0.056,-0.803 V -2.945 H -0.739 V 0 Z" />
      </g>
      <g
         transform="matrix(0.35277777,0,0,-0.35277777,76.595336,209.08954)"
         id="g688">
        <path
           inkscape:connector-curvature="0"
           id="path690"
           style="fill:#5a5758;fill-opacity:1;fill-rule:nonzero;stroke:none"
           d="m 0,0 c 0,-0.268 0.048,-0.483 0.142,-0.646 0.094,-0.161 0.247,-0.242 0.457,-0.242 0.206,0 0.355,0.081 0.451,0.244 C 1.145,-0.48 1.193,-0.266 1.193,0 V 0.057 C 1.193,0.318 1.145,0.531 1.048,0.696 0.951,0.86 0.801,0.943 0.594,0.943 0.389,0.943 0.238,0.86 0.143,0.694 0.048,0.529 0,0.316 0,0.057 Z m -0.792,0.056 c 0,0.439 0.123,0.798 0.367,1.079 0.245,0.281 0.585,0.421 1.019,0.421 0.435,0 0.776,-0.14 1.023,-0.419 0.246,-0.28 0.369,-0.64 0.369,-1.081 V -0.001 C 1.986,-0.444 1.864,-0.805 1.619,-1.083 1.372,-1.361 1.032,-1.5 0.599,-1.5 c -0.435,0 -0.776,0.139 -1.023,0.417 -0.245,0.278 -0.368,0.639 -0.368,1.082 z" />
      </g>
      <g
         transform="matrix(0.35277777,0,0,-0.35277777,78.125649,209.08661)"
         id="g692">
        <path
           inkscape:connector-curvature="0"
           id="path694"
           style="fill:#5a5758;fill-opacity:1;fill-rule:nonzero;stroke:none"
           d="M 0,0 C 0,0.278 -0.046,0.503 -0.139,0.676 -0.23,0.848 -0.372,0.935 -0.563,0.935 -0.682,0.935 -0.784,0.91 -0.869,0.861 -0.954,0.812 -1.02,0.742 -1.068,0.651 v -1.292 c 0.048,-0.083 0.114,-0.147 0.199,-0.191 0.085,-0.043 0.188,-0.064 0.311,-0.064 0.193,0 0.333,0.074 0.423,0.226 C -0.044,-0.52 0,-0.315 0,-0.057 Z m 0.795,-0.061 c 0,-0.436 -0.1,-0.786 -0.302,-1.05 -0.201,-0.265 -0.482,-0.398 -0.844,-0.398 -0.154,0 -0.292,0.029 -0.41,0.086 -0.12,0.057 -0.223,0.14 -0.307,0.252 v -1.413 h -0.793 v 4.077 h 0.715 l 0.047,-0.348 c 0.087,0.128 0.192,0.228 0.315,0.297 0.122,0.07 0.264,0.105 0.429,0.105 0.364,0 0.647,-0.142 0.848,-0.427 0.202,-0.285 0.302,-0.66 0.302,-1.124 z" />
      </g>
      <g
         transform="matrix(0.35277777,0,0,-0.35277777,78.912168,208.30545)"
         id="g696">
        <path
           inkscape:connector-curvature="0"
           id="path698"
           style="fill:#5a5758;fill-opacity:1;fill-rule:nonzero;stroke:none"
           d="M 0,0 V -0.722 H 0.495 V -1.279 H 0 v -1.5 c 0,-0.114 0.023,-0.196 0.07,-0.245 0.048,-0.049 0.112,-0.073 0.191,-0.073 0.042,0 0.078,0.002 0.107,0.006 0.03,0.005 0.066,0.012 0.106,0.023 L 0.542,-3.642 C 0.462,-3.669 0.384,-3.689 0.308,-3.704 0.231,-3.717 0.148,-3.723 0.06,-3.723 c -0.274,0 -0.485,0.075 -0.633,0.225 -0.148,0.151 -0.222,0.39 -0.222,0.716 v 1.503 h -0.43 v 0.557 h 0.43 V 0 Z" />
      </g>
      <path
         inkscape:connector-curvature="0"
         id="path700"
         style="fill:#5a5758;fill-opacity:1;fill-rule:nonzero;stroke:none;stroke-width:0.35277775"
         d="m 79.560044,209.59884 h -0.280458 v -1.03893 h 0.280458 z m 0,-1.28764 h -0.280458 v -0.21025 h 0.280458 z" />
      <g
         transform="matrix(0.35277777,0,0,-0.35277777,80.050794,208.56002)"
         id="g702">
        <path
           inkscape:connector-curvature="0"
           id="path704"
           style="fill:#5a5758;fill-opacity:1;fill-rule:nonzero;stroke:none"
           d="m 0,0 0.033,-0.389 c 0.094,0.141 0.213,0.251 0.355,0.328 0.143,0.077 0.307,0.116 0.494,0.116 0.189,0 0.35,-0.042 0.485,-0.125 0.134,-0.084 0.236,-0.21 0.304,-0.379 0.091,0.158 0.209,0.281 0.354,0.37 0.145,0.089 0.316,0.134 0.512,0.134 0.29,0 0.52,-0.101 0.688,-0.301 0.167,-0.201 0.252,-0.506 0.252,-0.916 V -2.945 H 2.681 v 1.79 c 0,0.223 -0.036,0.379 -0.109,0.466 -0.072,0.087 -0.18,0.131 -0.324,0.131 -0.112,0 -0.21,-0.025 -0.293,-0.075 -0.082,-0.05 -0.148,-0.119 -0.197,-0.209 0,-0.034 0.002,-0.063 0.004,-0.088 0.002,-0.025 0.002,-0.049 0.002,-0.075 v -1.94 H 0.973 v 1.79 c 0,0.218 -0.037,0.372 -0.11,0.462 -0.073,0.09 -0.181,0.135 -0.326,0.135 -0.107,0 -0.201,-0.021 -0.282,-0.061 C 0.174,-0.66 0.107,-0.717 0.055,-0.792 V -2.945 H -0.737 V 0 Z" />
      </g>
      <path
         inkscape:connector-curvature="0"
         id="path706"
         style="fill:#5a5758;fill-opacity:1;fill-rule:nonzero;stroke:none;stroke-width:0.35277775"
         d="m 81.786777,209.59884 h -0.280105 v -1.03893 h 0.280105 z m 0,-1.28764 h -0.280105 v -0.21025 h 0.280105 z" />
      <g
         transform="matrix(0.35277777,0,0,-0.35277777,82.330055,209.38291)"
         id="g708">
        <path
           inkscape:connector-curvature="0"
           id="path710"
           style="fill:#5a5758;fill-opacity:1;fill-rule:nonzero;stroke:none"
           d="m 0,0 h 1.459 v -0.612 h -2.446 v 0.47 L 0.414,1.72 H -0.943 V 2.333 H 1.413 V 1.88 Z" />
      </g>
      <g
         transform="matrix(0.35277777,0,0,-0.35277777,83.43799,208.75676)"
         id="g712">
        <path
           inkscape:connector-curvature="0"
           id="path714"
           style="fill:#5a5758;fill-opacity:1;fill-rule:nonzero;stroke:none"
           d="M 0,0 C -0.146,0 -0.263,-0.056 -0.348,-0.168 -0.434,-0.282 -0.486,-0.43 -0.506,-0.612 l 0.008,-0.014 h 0.975 v 0.071 c 0,0.168 -0.04,0.303 -0.119,0.404 C 0.279,-0.05 0.16,0 0,0 m 0.071,-2.444 c -0.425,0 -0.764,0.136 -1.017,0.408 -0.254,0.272 -0.382,0.618 -0.382,1.037 v 0.108 c 0,0.438 0.121,0.798 0.361,1.081 0.24,0.284 0.563,0.424 0.967,0.422 0.398,0 0.706,-0.119 0.926,-0.359 0.22,-0.239 0.329,-0.564 0.329,-0.972 v -0.433 h -1.758 l -0.006,-0.016 c 0.015,-0.193 0.079,-0.352 0.195,-0.477 0.115,-0.125 0.272,-0.187 0.47,-0.187 0.176,0 0.322,0.018 0.438,0.053 0.116,0.036 0.243,0.092 0.381,0.168 L 1.189,-2.102 C 1.07,-2.201 0.913,-2.282 0.719,-2.347 0.525,-2.412 0.309,-2.444 0.071,-2.444" />
      </g>
      <g
         transform="matrix(0.35277777,0,0,-0.35277777,84.280318,209.1083)"
         id="g716">
        <path
           inkscape:connector-curvature="0"
           id="path718"
           style="fill:#5a5758;fill-opacity:1;fill-rule:nonzero;stroke:none"
           d="m 0,0 c 0,-0.259 0.043,-0.463 0.13,-0.612 0.088,-0.149 0.229,-0.223 0.425,-0.223 0.114,0 0.214,0.023 0.299,0.069 0.085,0.047 0.156,0.116 0.209,0.204 V 0.701 C 1.01,0.794 0.94,0.866 0.855,0.918 0.771,0.97 0.673,0.997 0.561,0.997 0.366,0.997 0.225,0.91 0.135,0.736 0.044,0.563 0,0.336 0,0.057 Z m -0.792,0.057 c 0,0.465 0.1,0.839 0.3,1.124 0.201,0.285 0.483,0.428 0.848,0.428 0.147,0 0.28,-0.032 0.398,-0.096 C 0.872,1.45 0.975,1.359 1.063,1.242 V 2.855 H 1.861 V -1.391 H 1.178 l -0.066,0.36 C 1.021,-1.167 0.911,-1.271 0.785,-1.341 0.658,-1.412 0.515,-1.447 0.351,-1.447 c -0.362,0 -0.642,0.132 -0.843,0.397 -0.2,0.264 -0.3,0.615 -0.3,1.05 z" />
      </g>
    </g>
  </g>
</svg>
